<svg width="37" height="36" viewBox="0 0 37 36" fill="none" xmlns="http://www.w3.org/2000/svg">
                    <path
                        d="M13.5749 6.36762C14.6518 3.21634 19.0059 3.1209 20.2827 6.0813L20.3907 6.36942L21.8439 10.6192C22.1769 11.5938 22.7151 12.4856 23.4221 13.2346C24.1291 13.9835 24.9885 14.5721 25.9424 14.9607L26.3331 15.1066L30.5829 16.558C33.7341 17.6348 33.8296 21.989 30.871 23.2657L30.5829 23.3737L26.3331 24.8269C25.3582 25.1598 24.466 25.6978 23.7167 26.4048C22.9674 27.1119 22.3785 27.9714 21.9898 28.9254L21.8439 29.3144L20.3925 33.5659C19.3157 36.7172 14.9615 36.8126 13.6866 33.854L13.5749 33.5659L12.1235 29.3162C11.7907 28.3412 11.2527 27.449 10.5456 26.6997C9.83861 25.9505 8.97909 25.3616 8.02507 24.9728L7.63611 24.8269L3.38638 23.3755C0.233299 22.2987 0.13786 17.9445 3.09827 16.6696L3.38638 16.558L7.63611 15.1066C8.61073 14.7735 9.50259 14.2354 10.2515 13.5284C11.0005 12.8214 11.5891 11.9619 11.9777 11.0081L12.1235 10.6192L13.5749 6.36762ZM31.3896 0.158692C31.7265 0.158691 32.0566 0.253191 32.3424 0.431451C32.6283 0.609712 32.8584 0.864584 33.0066 1.1671L33.0931 1.37779L33.7233 3.22534L35.5727 3.8556C35.9103 3.9703 36.2063 4.18264 36.423 4.46571C36.6398 4.74879 36.7677 5.08985 36.7905 5.44568C36.8132 5.80151 36.7299 6.15609 36.5509 6.46448C36.3719 6.77286 36.1054 7.02118 35.7852 7.17795L35.5727 7.26439L33.7251 7.89464L33.0949 9.744C32.98 10.0815 32.7675 10.3773 32.4843 10.5939C32.2011 10.8105 31.86 10.9382 31.5042 10.9608C31.1484 10.9834 30.7939 10.8998 30.4856 10.7207C30.1773 10.5416 29.9291 10.275 29.7725 9.95468L29.6861 9.744L29.0558 7.89644L27.2065 7.26619C26.8689 7.15149 26.5729 6.93915 26.3561 6.65607C26.1393 6.373 26.0114 6.03193 25.9887 5.6761C25.9659 5.32027 26.0493 4.96569 26.2283 4.65731C26.4073 4.34892 26.6738 4.10061 26.994 3.94383L27.2065 3.8574L29.054 3.22714L29.6843 1.37779C29.8057 1.02201 30.0354 0.713153 30.3413 0.494526C30.6471 0.275899 31.0137 0.158466 31.3896 0.158692Z"
                        fill="white" />
                </svg>