<svg width="18" height="13" viewBox="0 0 18 13" fill="none" xmlns="http://www.w3.org/2000/svg">
<path d="M1.82756 12.7157C1.33445 12.7157 0.912465 12.5689 0.561607 12.2754C0.210749 11.9819 0.0350215 11.6287 0.0344238 11.2157V2.2157C0.0344238 1.8032 0.210152 1.4502 0.561607 1.1567C0.913062 0.863198 1.33505 0.716198 1.82756 0.715698H16.1727C16.6658 0.715698 17.0881 0.862698 17.4395 1.1567C17.791 1.4507 17.9664 1.8037 17.9658 2.2157V11.2157C17.9658 11.6282 17.7904 11.9814 17.4395 12.2754C17.0887 12.5694 16.6664 12.7162 16.1727 12.7157H1.82756ZM9.00012 7.4657L16.1727 3.7157V2.2157L9.00012 5.9657L1.82756 2.2157V3.7157L9.00012 7.4657Z" fill="#F3EAE7"/>
</svg>
