<svg width="143" height="46" viewBox="0 0 143 46" fill="none" xmlns="http://www.w3.org/2000/svg">
<g id="mistral-ai 1" clip-path="url(#clip0_3100_57)">
<path id="Vector" d="M60.7512 7.85011H63.8503L65.1288 12.4245L65.5673 14.2094H65.6477L66.0809 12.4245L67.3656 7.85011H70.4646V20.7583H67.9658V16.7623L67.9671 16.5538C67.9888 15.0265 68.2298 12.0977 68.3615 10.7661H68.3013L67.3001 14.2308L66.2839 17.3402H64.8509L63.8173 14.2308L62.8832 10.7661H62.8138L62.8457 11.0747C62.996 12.5825 63.2096 15.4079 63.2096 16.7623V20.7585H60.7512V7.85011ZM73.1005 18.3088H76.1491V10.2996H73.1005V7.84984H82.1513V10.2996H79.1042V18.309H82.1516V20.7585H73.1008L73.1005 18.3088ZM84.6452 19.1319L86.3409 17.1256C87.3277 17.9246 88.5455 18.4729 89.811 18.4729C91.0646 18.4729 91.6437 17.9927 91.6437 17.3616C91.6437 16.4322 90.8677 16.2075 89.6327 15.696L87.932 14.9779C86.4857 14.4347 85.165 13.3376 85.165 11.4589C85.165 9.32112 87.1125 7.61222 89.9491 7.61222C91.5192 7.61222 93.1059 8.19447 94.2843 9.30246L92.7961 11.1439C91.8764 10.4908 91.0627 10.1355 89.7874 10.1355C88.8145 10.1355 88.1539 10.5345 88.1539 11.2882C88.1539 12.0647 89.0289 12.3493 90.2811 12.8133L91.8781 13.4825C93.5879 14.1164 94.6668 15.1706 94.6668 16.992C94.6668 19.138 92.8463 20.9959 89.6149 20.9959C87.851 20.9959 86.0294 20.3576 84.6452 19.1319ZM100.187 10.2999H96.2731V7.85011H107.054V10.2999H103.142V20.7588H100.187V10.2999ZM112.024 10.1687H113.465C115.016 10.1687 115.849 10.5973 115.849 11.8719C115.849 13.1357 115.016 13.7964 113.465 13.7964H112.024V10.1687ZM119.372 20.7588L116.42 15.5948C117.813 14.9714 118.746 13.7687 118.746 11.8719C118.746 8.83161 116.515 7.86932 113.788 7.85039H109.064V20.7583H112.024V16.1147H113.575L116.067 20.7585L119.372 20.7588ZM124.276 15.4126L124.585 14.2234L125.598 10.0603H125.678C125.902 11.0333 126.169 12.0826 126.424 13.0726L127.027 15.4126H124.276ZM128.405 20.7588H131.538L127.472 7.85011H123.931L119.865 20.7588H122.888L123.685 17.6889H127.614L128.405 20.7588ZM133.845 7.85039H136.794V18.3093H142.605V20.7588H133.845V7.85039ZM64.1825 36.1205L64.4912 34.9313L65.5041 30.768H65.5845C65.8086 31.741 66.0754 32.7903 66.3303 33.7805L66.9332 36.1205H64.1825ZM68.3108 41.4717H71.4445L67.377 28.5578H63.8344L59.7669 41.4717H62.7911L63.5887 38.4002H67.5187L68.3108 41.4717ZM73.1005 39.017H76.1491V31.0076H73.1005V28.5578H82.1513V31.0076H79.1042V39.017H82.1516V41.4668H73.1008L73.1005 39.017ZM84.7786 42.7515H94.4485V44.9765H84.7786V42.7515ZM34.6973 0.0856934H43.2203V8.51798H34.6973V0.0856934Z" fill="#F4F4F4"/>
<path id="Vector_2" d="M38.959 0.0856934H47.482V8.51798H38.959V0.0856934Z" fill="#F7D046"/>
<path id="Vector_3" d="M0.60498 0.0856934H9.12803V8.51798H0.60498V0.0856934ZM0.60498 8.51798H9.12803V16.9503H0.60498V8.51798ZM0.60498 16.9503H9.12803V25.3828H0.60498V16.9503ZM0.60498 25.3828H9.12803V33.8151H0.60498V25.3828Z" fill="#F4F4F4"/>
<path id="Vector_4" d="M0.60498 33.8151H9.12803V42.2474H0.60498V33.8151Z" fill="#F4F4F4"/>
<path id="Vector_5" d="M4.8667 0.0856934H13.3897V8.51798H4.8667V0.0856934Z" fill="#F7D046"/>
<path id="Vector_6" d="M38.9592 8.51801H47.4822V16.9503H38.9592V8.51801ZM4.8667 8.51801H13.3897V16.9503H4.8667V8.51801Z" fill="#F2A73B"/>
<path id="Vector_7" d="M26.1743 8.51801H34.6974V16.9503H26.1743V8.51801Z" fill="#F4F4F4"/>
<path id="Vector_8" d="M30.436 8.51801H38.9591V16.9503H30.436V8.51801ZM13.3896 8.51801H21.9127V16.9503H13.3896V8.51801Z" fill="#F2A73B"/>
<path id="Vector_9" d="M21.9127 16.9506H30.4357V25.3828H21.9127V16.9506ZM30.4357 16.9506H38.9591V25.3828H30.4357V16.9506ZM13.3896 16.9506H21.9127V25.3828H13.3896V16.9506Z" fill="#EE792F"/>
<path id="Vector_10" d="M17.6514 25.3828H26.1744V33.8151H17.6514V25.3828Z" fill="#F4F4F4"/>
<path id="Vector_11" d="M21.9126 25.3828H30.4356V33.8151H21.9126V25.3828Z" fill="#EB5829"/>
<path id="Vector_12" d="M38.9592 16.9506H47.4822V25.3828H38.9592V16.9506ZM4.8667 16.9506H13.3897V25.3828H4.8667V16.9506Z" fill="#EE792F"/>
<path id="Vector_13" d="M34.6973 25.3828H43.2203V33.8151H34.6973V25.3828Z" fill="#F4F4F4"/>
<path id="Vector_14" d="M38.959 25.3828H47.482V33.8151H38.959V25.3828Z" fill="#EB5829"/>
<path id="Vector_15" d="M34.6973 33.8151H43.2203V42.2474H34.6973V33.8151Z" fill="#F4F4F4"/>
<path id="Vector_16" d="M4.8667 25.3828H13.3897V33.8151H4.8667V25.3828Z" fill="#EB5829"/>
<path id="Vector_17" d="M38.9592 33.8151H47.4822V42.2474H38.9592V33.8151ZM4.8667 33.8151H13.3897V42.2474H4.8667V33.8151Z" fill="#EA3326"/>
<path id="Vector_18" d="M38.959 0.0856934H47.482V8.51798H38.959V0.0856934Z" fill="#F7D046"/>
<path id="Vector_19" d="M0.60498 0.0856934H9.12803V8.51798H0.60498V0.0856934ZM0.60498 8.51798H9.12803V16.9503H0.60498V8.51798ZM0.60498 16.9503H9.12803V25.3828H0.60498V16.9503ZM0.60498 25.3828H9.12803V33.8151H0.60498V25.3828Z" fill="#F4F4F4"/>
<path id="Vector_20" d="M0.60498 33.8151H9.12803V42.2474H0.60498V33.8151Z" fill="#F4F4F4"/>
<path id="Vector_21" d="M38.9592 8.51801H47.4822V16.9503H38.9592V8.51801ZM4.8667 8.51801H13.3897V16.9503H4.8667V8.51801Z" fill="#F2A73B"/>
<path id="Vector_22" d="M26.1743 8.51801H34.6974V16.9503H26.1743V8.51801Z" fill="#F4F4F4"/>
<path id="Vector_23" d="M30.436 8.51801H38.9591V16.9503H30.436V8.51801ZM13.3896 8.51801H21.9127V16.9503H13.3896V8.51801Z" fill="#F2A73B"/>
<path id="Vector_24" d="M21.9127 16.9506H30.4357V25.3828H21.9127V16.9506ZM30.4357 16.9506H38.9591V25.3828H30.4357V16.9506ZM13.3896 16.9506H21.9127V25.3828H13.3896V16.9506Z" fill="#EE792F"/>
<path id="Vector_25" d="M38.9592 16.9506H47.4822V25.3828H38.9592V16.9506ZM4.8667 16.9506H13.3897V25.3828H4.8667V16.9506Z" fill="#EE792F"/>
<path id="Vector_26" d="M34.6973 25.3828H43.2203V33.8151H34.6973V25.3828Z" fill="#F4F4F4"/>
<path id="Vector_27" d="M38.959 25.3828H47.482V33.8151H38.959V25.3828Z" fill="#EB5829"/>
<path id="Vector_28" d="M34.6973 33.8151H43.2203V42.2474H34.6973V33.8151Z" fill="#F4F4F4"/>
<path id="Vector_29" d="M38.9592 33.8151H47.4822V42.2474H38.9592V33.8151ZM4.8667 33.8151H13.3897V42.2474H4.8667V33.8151Z" fill="#EA3326"/>
<path id="Vector_30" d="M17.6514 25.3828H26.1744V33.8151H17.6514V25.3828Z" fill="#F4F4F4"/>
<path id="Vector_31" d="M21.9126 25.3828H30.4356V33.8151H21.9126V25.3828Z" fill="#EB5829"/>
<path id="Vector_32" d="M4.8667 25.3828H13.3897V33.8151H4.8667V25.3828Z" fill="#EB5829"/>
<path id="Vector_33" d="M38.959 0.0856934H47.482V8.51798H38.959V0.0856934Z" fill="#F7D046"/>
<path id="Vector_34" d="M0.60498 0.0856934H9.12803V8.51798H0.60498V0.0856934ZM0.60498 8.51798H9.12803V16.9503H0.60498V8.51798ZM0.60498 16.9503H9.12803V25.3828H0.60498V16.9503ZM0.60498 25.3828H9.12803V33.8151H0.60498V25.3828Z" fill="#F4F4F4"/>
<path id="Vector_35" d="M0.60498 33.8151H9.12803V42.2474H0.60498V33.8151Z" fill="#F4F4F4"/>
<path id="Vector_36" d="M38.9592 8.51801H47.4822V16.9503H38.9592V8.51801ZM4.8667 8.51801H13.3897V16.9503H4.8667V8.51801Z" fill="#F2A73B"/>
<path id="Vector_37" d="M26.1743 8.51801H34.6974V16.9503H26.1743V8.51801Z" fill="#F4F4F4"/>
<path id="Vector_38" d="M30.436 8.51801H38.9591V16.9503H30.436V8.51801ZM13.3896 8.51801H21.9127V16.9503H13.3896V8.51801Z" fill="#F2A73B"/>
<path id="Vector_39" d="M21.9127 16.9506H30.4357V25.3828H21.9127V16.9506ZM30.4357 16.9506H38.9591V25.3828H30.4357V16.9506ZM13.3896 16.9506H21.9127V25.3828H13.3896V16.9506Z" fill="#EE792F"/>
<path id="Vector_40" d="M38.9592 16.9506H47.4822V25.3828H38.9592V16.9506ZM4.8667 16.9506H13.3897V25.3828H4.8667V16.9506Z" fill="#EE792F"/>
<path id="Vector_41" d="M38.959 25.3828H47.482V33.8151H38.959V25.3828Z" fill="#EB5829"/>
<path id="Vector_42" d="M34.6973 33.8151H43.2203V42.2474H34.6973V33.8151Z" fill="#F4F4F4"/>
<path id="Vector_43" d="M38.9592 33.8151H47.4822V42.2474H38.9592V33.8151ZM4.8667 33.8151H13.3897V42.2474H4.8667V33.8151Z" fill="#EA3326"/>
</g>
<defs>
<clipPath id="clip0_3100_57">
<rect width="142" height="45" fill="white" transform="translate(0.60498 0.0856934)"/>
</clipPath>
</defs>
</svg>
